<svg width="52" height="51" viewBox="0 0 52 51" fill="none" xmlns="http://www.w3.org/2000/svg">
<path d="M22.22 34.46C22.22 37.1 21.34 39.36 19.58 41.24C17.82 43.08 15.36 44.2 12.2 44.6V50.48C12.2 50.76 12 50.9 11.6 50.9C11.16 50.9 10.94 50.76 10.94 50.48V44.72H9.86C6.78 44.72 3.96 44.02 1.4 42.62C1.2 42.5 1.06 42.36 0.98 42.2C0.94 42.04 0.9 41.8 0.86 41.48L0.0800002 33.32C0.0400001 33.16 0.12 33.06 0.32 33.02C0.56 32.98 0.7 33.04 0.74 33.2C1.38 36.04 2.54 38.5 4.22 40.58C5.9 42.62 8.14 43.68 10.94 43.76V26.66L9.62 25.88C7.7 24.72 6.18 23.72 5.06 22.88C3.98 22.04 3.06 20.98 2.3 19.7C1.54 18.42 1.16 16.92 1.16 15.2C1.16 12.48 2.1 10.32 3.98 8.72C5.9 7.12 8.22 6.18 10.94 5.9V0.859998C10.94 0.699997 11 0.579998 11.12 0.499999C11.24 0.419997 11.4 0.379997 11.6 0.379997C11.76 0.379997 11.9 0.419997 12.02 0.499999C12.14 0.579998 12.2 0.699997 12.2 0.859998V5.84H12.32C14.68 5.84 17.02 6.32 19.34 7.28C19.94 7.48 20.24 7.82 20.24 8.3L20.66 15.2C20.66 15.36 20.56 15.44 20.36 15.44C20.16 15.44 20.04 15.36 20 15.2C19.68 13.24 18.88 11.4 17.6 9.68C16.36 7.96 14.56 7 12.2 6.8V22.88C12.28 22.96 12.6 23.16 13.16 23.48C15.24 24.72 16.86 25.76 18.02 26.6C19.18 27.44 20.16 28.52 20.96 29.84C21.8 31.12 22.22 32.66 22.22 34.46ZM4.7 13.52C4.7 15.4 5.24 17 6.32 18.32C7.4 19.6 8.94 20.86 10.94 22.1V6.74C8.86 6.82 7.3 7.52 6.26 8.84C5.22 10.12 4.7 11.68 4.7 13.52ZM12.2 43.7C14 43.54 15.48 42.92 16.64 41.84C17.8 40.72 18.38 39.06 18.38 36.86C18.38 34.7 17.84 32.92 16.76 31.52C15.68 30.08 14.16 28.72 12.2 27.44V43.7ZM38.2628 26.72C36.3028 26.72 34.6228 26.26 33.2228 25.34C31.8228 24.42 30.7428 23.2 29.9828 21.68C29.2628 20.12 28.9028 18.42 28.9028 16.58C28.9028 14.46 29.4028 12.6 30.4028 11C31.4028 9.36 32.7828 8.1 34.5428 7.22C36.3028 6.3 38.2828 5.84 40.4828 5.84C44.2428 5.84 47.0828 7.14 49.0028 9.74C50.9228 12.34 51.8828 15.82 51.8828 20.18C51.8828 24.1 51.1028 27.92 49.5428 31.64C48.0228 35.32 45.8028 38.36 42.8828 40.76C39.9628 43.16 36.5628 44.48 32.6828 44.72C32.5628 44.76 32.4628 44.66 32.3828 44.42C32.3428 44.22 32.4028 44.1 32.5628 44.06C35.8428 43.42 38.6228 41.94 40.9028 39.62C43.2228 37.3 44.9628 34.52 46.1228 31.28C47.2828 28 47.8628 24.62 47.8628 21.14C47.8628 17.14 47.1228 13.78 45.6428 11.06C44.1628 8.3 41.9228 6.92 38.9228 6.92C34.9228 6.92 32.9228 9.6 32.9228 14.96C32.9228 18.08 33.5828 20.56 34.9028 22.4C36.2228 24.24 37.9628 25.16 40.1228 25.16C40.8828 25.16 41.6028 25.02 42.2828 24.74C43.0028 24.42 43.8028 23.88 44.6828 23.12C44.7228 23.08 44.7828 23.06 44.8628 23.06C44.9828 23.06 45.0828 23.12 45.1628 23.24C45.2828 23.36 45.3228 23.46 45.2828 23.54C43.6028 25.66 41.2628 26.72 38.2628 26.72Z" fill="white"/>
</svg>
