<svg width="77" height="51" viewBox="0 0 77 51" fill="none" xmlns="http://www.w3.org/2000/svg">
<path d="M22.22 34.46C22.22 37.1 21.34 39.36 19.58 41.24C17.82 43.08 15.36 44.2 12.2 44.6V50.48C12.2 50.76 12 50.9 11.6 50.9C11.16 50.9 10.94 50.76 10.94 50.48V44.72H9.86C6.78 44.72 3.96 44.02 1.4 42.62C1.2 42.5 1.06 42.36 0.98 42.2C0.94 42.04 0.9 41.8 0.86 41.48L0.0800002 33.32C0.0400001 33.16 0.12 33.06 0.32 33.02C0.56 32.98 0.7 33.04 0.74 33.2C1.38 36.04 2.54 38.5 4.22 40.58C5.9 42.62 8.14 43.68 10.94 43.76V26.66L9.62 25.88C7.7 24.72 6.18 23.72 5.06 22.88C3.98 22.04 3.06 20.98 2.3 19.7C1.54 18.42 1.16 16.92 1.16 15.2C1.16 12.48 2.1 10.32 3.98 8.72C5.9 7.12 8.22 6.18 10.94 5.9V0.859998C10.94 0.699997 11 0.579998 11.12 0.499999C11.24 0.419997 11.4 0.379997 11.6 0.379997C11.76 0.379997 11.9 0.419997 12.02 0.499999C12.14 0.579998 12.2 0.699997 12.2 0.859998V5.84H12.32C14.68 5.84 17.02 6.32 19.34 7.28C19.94 7.48 20.24 7.82 20.24 8.3L20.66 15.2C20.66 15.36 20.56 15.44 20.36 15.44C20.16 15.44 20.04 15.36 20 15.2C19.68 13.24 18.88 11.4 17.6 9.68C16.36 7.96 14.56 7 12.2 6.8V22.88C12.28 22.96 12.6 23.16 13.16 23.48C15.24 24.72 16.86 25.76 18.02 26.6C19.18 27.44 20.16 28.52 20.96 29.84C21.8 31.12 22.22 32.66 22.22 34.46ZM4.7 13.52C4.7 15.4 5.24 17 6.32 18.32C7.4 19.6 8.94 20.86 10.94 22.1V6.74C8.86 6.82 7.3 7.52 6.26 8.84C5.22 10.12 4.7 11.68 4.7 13.52ZM12.2 43.7C14 43.54 15.48 42.92 16.64 41.84C17.8 40.72 18.38 39.06 18.38 36.86C18.38 34.7 17.84 32.92 16.76 31.52C15.68 30.08 14.16 28.72 12.2 27.44V43.7ZM30.3428 44C30.2628 44 30.2228 43.88 30.2228 43.64C30.2228 43.4 30.2628 43.28 30.3428 43.28C32.2228 43.28 33.6228 43.18 34.5428 42.98C35.4628 42.74 36.1028 42.34 36.4628 41.78C36.8628 41.22 37.0628 40.34 37.0628 39.14V14.42C37.0628 12.3 36.5228 11.24 35.4428 11.24C34.4428 11.24 32.6628 12.2 30.1028 14.12L29.9828 14.18C29.8228 14.18 29.7028 14.08 29.6228 13.88C29.5428 13.68 29.5828 13.54 29.7428 13.46L39.7628 6.08C39.9628 5.96 40.1028 5.9 40.1828 5.9C40.2628 5.9 40.3428 5.94 40.4228 6.02C40.5028 6.1 40.5428 6.18 40.5428 6.26V39.14C40.5428 40.34 40.7028 41.24 41.0228 41.84C41.3428 42.4 41.9628 42.78 42.8828 42.98C43.8028 43.18 45.2428 43.28 47.2028 43.28C47.2828 43.28 47.3228 43.4 47.3228 43.64C47.3228 43.88 47.2828 44 47.2028 44C45.7228 44 44.5628 43.98 43.7228 43.94L38.8028 43.88L33.9428 43.94C33.0628 43.98 31.8628 44 30.3428 44ZM64.7803 44.78C62.3803 44.78 60.2403 43.96 58.3603 42.32C56.5203 40.68 55.0803 38.38 54.0403 35.42C53.0403 32.46 52.5403 29.06 52.5403 25.22C52.5403 21.42 53.0603 18.06 54.1003 15.14C55.1403 12.18 56.5803 9.88 58.4203 8.24C60.3003 6.6 62.4603 5.78 64.9003 5.78C67.2603 5.78 69.3403 6.6 71.1403 8.24C72.9803 9.88 74.4003 12.2 75.4003 15.2C76.4003 18.16 76.9003 21.56 76.9003 25.4C76.9003 29.2 76.3803 32.58 75.3403 35.54C74.3403 38.46 72.9203 40.74 71.0803 42.38C69.2403 43.98 67.1403 44.78 64.7803 44.78ZM65.5003 43.94C67.9003 43.94 69.6803 42.4 70.8403 39.32C72.0403 36.2 72.6403 31.8 72.6403 26.12C72.6403 19.72 71.8603 14.86 70.3003 11.54C68.7403 8.22 66.7203 6.56 64.2403 6.56C61.8403 6.56 59.9803 8.2 58.6603 11.48C57.3803 14.76 56.7403 19.2 56.7403 24.8C56.7403 30.68 57.5203 35.34 59.0803 38.78C60.6403 42.22 62.7803 43.94 65.5003 43.94Z" fill="#292E36"/>
</svg>
