<svg width="44" height="13" viewBox="0 0 44 13" fill="none" xmlns="http://www.w3.org/2000/svg">
<path d="M0.885 6.585C0.885 5.835 1.025 5.13 1.305 4.47C1.595 3.8 1.995 3.21 2.505 2.7C3.015 2.18 3.6 1.775 4.26 1.485C4.93 1.185 5.65 1.035 6.42 1.035C7.18 1.035 7.89 1.185 8.55 1.485C9.22 1.775 9.81 2.18 10.32 2.7C10.84 3.21 11.245 3.8 11.535 4.47C11.825 5.13 11.97 5.835 11.97 6.585C11.97 7.355 11.825 8.075 11.535 8.745C11.245 9.415 10.84 10.005 10.32 10.515C9.81 11.015 9.22 11.41 8.55 11.7C7.89 11.98 7.18 12.12 6.42 12.12C5.65 12.12 4.93 11.98 4.26 11.7C3.6 11.42 3.015 11.03 2.505 10.53C1.995 10.03 1.595 9.445 1.305 8.775C1.025 8.105 0.885 7.375 0.885 6.585ZM2.385 6.6C2.385 7.17 2.49 7.705 2.7 8.205C2.91 8.695 3.2 9.13 3.57 9.51C3.94 9.89 4.37 10.19 4.86 10.41C5.35 10.62 5.88 10.725 6.45 10.725C7.01 10.725 7.535 10.62 8.025 10.41C8.515 10.19 8.94 9.89 9.3 9.51C9.66 9.13 9.945 8.695 10.155 8.205C10.365 7.705 10.47 7.165 10.47 6.585C10.47 6.015 10.365 5.48 10.155 4.98C9.945 4.47 9.655 4.025 9.285 3.645C8.915 3.265 8.485 2.97 7.995 2.76C7.505 2.54 6.98 2.43 6.42 2.43C5.85 2.43 5.32 2.54 4.83 2.76C4.34 2.98 3.91 3.28 3.54 3.66C3.17 4.04 2.885 4.485 2.685 4.995C2.485 5.495 2.385 6.03 2.385 6.6ZM23.9613 12.345L15.5763 3.84L15.9963 3.945L16.0263 12H14.5713V0.824999H14.6463L22.9413 9.36L22.5963 9.285L22.5663 1.155H24.0063V12.345H23.9613ZM27.275 1.155H28.73V10.605H34.235V12H27.275V1.155ZM38.4789 8.385L34.4589 1.155H36.2439L39.4689 7.14L39.0189 7.17L42.2139 1.155H43.9839L39.9339 8.385V12H38.4789V8.385Z" fill="white"/>
</svg>
